<?xml version="1.0" encoding="utf-8"?>
<!-- Generator: Adobe Illustrator 17.1.0, SVG Export Plug-In . SVG Version: 6.00 Build 0)  -->
<!DOCTYPE svg PUBLIC "-//W3C//DTD SVG 1.1//EN" "http://www.w3.org/Graphics/SVG/1.1/DTD/svg11.dtd">
<svg version="1.1" id="Isolation_Mode" xmlns="http://www.w3.org/2000/svg" xmlns:xlink="http://www.w3.org/1999/xlink" x="0px"
	 y="0px" viewBox="0 0 393.9 454.8" enable-background="new 0 0 393.9 454.8" xml:space="preserve">
<polygon fill="#F7F5DE" points="393.9,341.1 197,454.8 0,341.1 0,113.7 197,0 393.9,113.7 "/>
<polygon fill="#24272E" points="168.8,80.2 147.6,80.2 134.8,134.1 133.5,134.1 120,80.2 99,80.2 99,80.2 123.8,161.6 123.8,214.9 
	144.6,214.9 144.6,159 168.8,80.2 "/>
<path fill="#24272E" d="M175.1,209.9c4.8,5,11.3,7.5,19.3,7.5h0.2c8.4,0,14.9-2.4,19.7-7.3c4.8-4.8,7.2-11.5,7.2-20v-51.4
	c0-7.6-2.4-13.8-7.3-18.6c-4.9-4.8-11.1-7.2-18.8-7.2c-8.4,0-15.1,2.3-20.1,6.8c-5,4.6-7.5,10.7-7.5,18.4l0,51.5
	C167.8,198.2,170.3,205,175.1,209.9L175.1,209.9z M186.9,137.5L186.9,137.5c0-2.2,0.7-3.9,2.1-5.3c1.4-1.3,3.2-2,5.5-2
	c2.4,0,4.4,0.7,5.9,2c1.5,1.3,2.3,3.1,2.3,5.3v54.1c0,2.7-0.7,4.8-2.2,6.3c-1.5,1.5-3.5,2.3-6,2.3c-2.4,0-4.3-0.7-5.6-2.2
	c-1.3-1.5-2-3.6-2-6.3V137.5L186.9,137.5z"/>
<path fill="#24272E" d="M271.4,115.6V191c-1.7,2.2-3.6,3.9-5.7,5.3c-2.1,1.4-3.8,2.1-5.1,2.1c-1.7,0-3-0.5-3.8-1.6
	c-0.8-1.1-1.2-2.8-1.2-5.1v-76.2h-18.5v83.1c0,5.9,1.1,10.3,3.2,13.3c2.2,3,5.4,4.4,9.7,4.4c3.5,0,7-1.1,10.7-3.2
	c3.7-2.1,7.2-5.2,10.6-9.2v11h18.5v-99.4H271.4L271.4,115.6z"/>
<path fill="#24272E" d="M200.6,230.4c-1.2,0-2.4,0-3.7,0c-1.2,0-2.5,0-3.7,0c-23.4,0-46.5,0.4-69,1.4c-16.6,0-30.1,13.3-30.1,29.7
	c-1,13-1.4,26-1.4,39c0,13,0.4,26,1.4,39c0,16.4,13.5,29.7,30.1,29.7c22.6,0.9,45.7,1.4,69.3,1.4c1.1,0,2.2,0,3.3,0
	c1.1,0,2.2,0,3.3,0c23.6,0,46.7-0.4,69.3-1.4c16.6,0,30.1-13.3,30.1-29.7c1-13,1.4-26,1.4-39c0-13-0.4-26-1.4-39
	c0-16.4-13.5-29.7-30.1-29.7C247.1,230.9,224.1,230.4,200.6,230.4L200.6,230.4z"/>
<path fill="#F7F5DE" d="M153.2,253.1h-43.7v13.4h14.7v78.7h14.2v-78.7h14.7V253.1L153.2,253.1z M176.4,328.9L176.4,328.9
	c-1.2,1.5-2.5,2.7-3.9,3.7c-1.4,1-2.6,1.4-3.5,1.4c-1.2,0-2-0.4-2.6-1.1c-0.5-0.7-0.8-1.9-0.8-3.5v-52.1H153v56.8
	c0,4,0.7,7.1,2.2,9.1c1.5,2,3.7,3,6.6,3c2.4,0,4.8-0.7,7.3-2.2c2.5-1.4,4.9-3.5,7.3-6.3v7.5h12.6v-67.9h-12.6V328.9L176.4,328.9z
	 M225.4,276.4L225.4,276.4c-2,0-3.9,0.5-5.8,1.6c-1.9,1.1-3.7,2.7-5.4,4.7v-29.7h-12.7v92.1h12.7V340c1.7,2.1,3.5,3.6,5.4,4.6
	c1.9,1,4.1,1.5,6.6,1.5c3.7,0,6.6-1.3,8.6-3.8c2-2.6,3-6.3,3-11.1v-37.7c0-5.6-1-9.8-3.2-12.7C232.4,277.9,229.4,276.4,225.4,276.4
	L225.4,276.4z M224.7,329.3L224.7,329.3c0,2.2-0.4,3.7-1.1,4.7c-0.7,1-1.9,1.4-3.4,1.4c-1.1,0-2.1-0.2-3-0.7c-1-0.5-2-1.3-3-2.4V290
	c0.9-0.9,1.7-1.6,2.6-2.1c0.9-0.4,1.8-0.7,2.7-0.7c1.7,0,3,0.6,3.9,1.8c0.9,1.2,1.4,2.9,1.4,5.2V329.3L224.7,329.3z M284.4,312.9
	L284.4,312.9v-17.3c0-6.5-1.5-11.4-4.6-14.8c-3.1-3.4-7.6-5.2-13.3-5.2c-5.6,0-10.3,1.9-13.8,5.6c-3.6,3.7-5.3,8.5-5.3,14.4v30.5
	c0,6.5,1.6,11.7,4.9,15.4c3.3,3.7,7.7,5.6,13.4,5.6c6.3,0,11-1.8,14.2-5.3c3.2-3.5,4.7-8.8,4.7-15.7V321h-13v4.7
	c0,4-0.4,6.6-1.2,7.8c-0.8,1.2-2.3,1.8-4.4,1.8c-2,0-3.4-0.7-4.3-2.1c-0.8-1.4-1.3-3.9-1.3-7.4v-12.8H284.4L284.4,312.9z
	 M260.2,295.4L260.2,295.4c0-2.8,0.4-4.9,1.3-6.1c0.9-1.2,2.3-1.8,4.3-1.8c1.9,0,3.3,0.6,4.2,1.8c0.9,1.2,1.3,3.3,1.3,6.1v6.9h-11.2
	V295.4L260.2,295.4z"/>
</svg>
