<?xml version="1.0" encoding="utf-8"?>
<!-- Generator: Adobe Illustrator 17.1.0, SVG Export Plug-In . SVG Version: 6.00 Build 0)  -->
<!DOCTYPE svg PUBLIC "-//W3C//DTD SVG 1.1//EN" "http://www.w3.org/Graphics/SVG/1.1/DTD/svg11.dtd">
<svg version="1.1" id="Isolation_Mode" xmlns="http://www.w3.org/2000/svg" xmlns:xlink="http://www.w3.org/1999/xlink" x="0px"
	 y="0px" viewBox="0 0 393.9 454.8" enable-background="new 0 0 393.9 454.8" xml:space="preserve">
<polygon fill="#F7F5DE" points="393.9,341.1 197,454.8 0,341.1 0,113.7 197,0 393.9,113.7 "/>
<path fill="#F10000" d="M335,149.2c-9.8,4.3-20.2,7.2-31.2,8.6c11.2-6.7,19.9-17.4,23.9-30.1c-10.5,6.2-22.2,10.8-34.5,13.2
	c-9.9-10.6-24.1-17.2-39.7-17.2c-30,0-54.4,24.4-54.4,54.4c0,4.3,0.5,8.4,1.4,12.4c-45.2-2.3-85.3-23.9-112.1-56.8
	c-4.7,8-7.4,17.4-7.4,27.3c0,18.9,9.6,35.5,24.2,45.3c-8.9-0.3-17.3-2.7-24.6-6.8c0,0.2,0,0.5,0,0.7c0,26.4,18.7,48.3,43.6,53.3
	c-4.6,1.2-9.4,1.9-14.3,1.9c-3.5,0-6.9-0.3-10.2-1c6.9,21.6,27,37.3,50.8,37.8c-18.6,14.6-42.1,23.3-67.6,23.3
	c-4.4,0-8.7-0.3-13-0.8c24.1,15.4,52.7,24.4,83.4,24.4c100,0,154.8-82.9,154.8-154.8c0-2.4-0.1-4.7-0.2-7
	C318.5,169.7,327.7,160.1,335,149.2L335,149.2z"/>
</svg>
