<?xml version="1.0" encoding="utf-8"?>
<!-- Generator: Adobe Illustrator 17.1.0, SVG Export Plug-In . SVG Version: 6.00 Build 0)  -->
<!DOCTYPE svg PUBLIC "-//W3C//DTD SVG 1.1//EN" "http://www.w3.org/Graphics/SVG/1.1/DTD/svg11.dtd">
<svg version="1.1" id="Isolation_Mode" xmlns="http://www.w3.org/2000/svg" xmlns:xlink="http://www.w3.org/1999/xlink" x="0px"
	 y="0px" viewBox="0 0 447.9 513.8" enable-background="new 0 0 447.9 513.8" xml:space="preserve">
<polygon fill="#F7F5DE" points="447.9,385.3 224,513.8 0,385.3 0,128.4 224,0 447.9,128.4 "/>
<path fill-rule="evenodd" clip-rule="evenodd" fill="#24272E" d="M144,148.4h98.5c32.4,0,60,15.9,60,48c0,26.8-9.7,37.2-29.7,49
	c1.7,1.4,13.1,4.8,17,6.7c6.1,3,9.8,6.1,13.8,10.2c11.3,11.5,13.4,22,13.4,40.1c0,41.9-40.5,62.9-79.5,62.9h-93.9L144,148.4
	L144,148.4z M197.6,205.4l0,28.2c25.4,0,49.2,3.3,49.2-24.2c0-25.5-27-21.3-49.2-21.3L197.6,205.4L197.6,205.4z M197.5,325.4
	c27.8,0,62.1,4.6,62.7-27c0.6-32.9-35.3-27-62.7-27L197.5,325.4L197.5,325.4z"/>
</svg>
