<?xml version="1.0" encoding="utf-8"?>
<!-- Generator: Adobe Illustrator 17.1.0, SVG Export Plug-In . SVG Version: 6.00 Build 0)  -->
<!DOCTYPE svg PUBLIC "-//W3C//DTD SVG 1.1//EN" "http://www.w3.org/Graphics/SVG/1.1/DTD/svg11.dtd">
<svg version="1.1" id="Isolation_Mode" xmlns="http://www.w3.org/2000/svg" xmlns:xlink="http://www.w3.org/1999/xlink" x="0px"
	 y="0px" viewBox="0 0 393.9 454.8" enable-background="new 0 0 393.9 454.8" xml:space="preserve">
<polygon fill="#F7F5DE" points="393.9,341.1 197,454.8 0,341.1 0,113.7 197,0 393.9,113.7 "/>
<path fill-rule="evenodd" clip-rule="evenodd" fill="#24272E" d="M285.2,236.4c-4.2-8.5-15.9-15.5-31.5-3.3
	c-21,16.6-54.8,16.6-54.8,16.6s-33.8,0-54.8-16.6c-15.6-12.3-27.3-5.2-31.5,3.3c-7.4,14.8,1,22,19.7,34c16,10.3,38.1,14.1,52.3,15.6
	l-11.9,11.9c-16.7,16.7-32.9,32.9-44.1,44.1c-6.7,6.7-6.7,17.6,0,24.3l2,2c3.3,3.3,7.7,5,12.1,5h0.1c4.4,0,8.8-1.7,12.1-5l44.1-44.1
	c16.7,16.7,32.9,32.9,44.1,44.1c6.7,6.7,17.6,6.7,24.3,0l2-2c6.7-6.7,6.7-17.6,0-24.3l-44.1-44.1l-11.9-11.9
	c14.2-1.5,36.1-5.3,52-15.5C284.3,258.3,292.6,251.2,285.2,236.4L285.2,236.4z M199,115.6c20.3,0,36.8,16.5,36.8,36.8
	c0,20.3-16.5,36.8-36.8,36.8s-36.8-16.5-36.8-36.8C162.1,132.1,178.6,115.6,199,115.6L199,115.6z M199,227.2
	c41.3,0,74.8-33.5,74.8-74.8c0-41.3-33.5-74.8-74.8-74.8c-41.3,0-74.8,33.5-74.8,74.8C124.1,193.7,157.6,227.2,199,227.2L199,227.2z
	"/>
</svg>
