<?xml version="1.0" encoding="utf-8"?>
<!-- Generator: Adobe Illustrator 17.1.0, SVG Export Plug-In . SVG Version: 6.00 Build 0)  -->
<!DOCTYPE svg PUBLIC "-//W3C//DTD SVG 1.1//EN" "http://www.w3.org/Graphics/SVG/1.1/DTD/svg11.dtd">
<svg version="1.1" id="Isolation_Mode" xmlns="http://www.w3.org/2000/svg" xmlns:xlink="http://www.w3.org/1999/xlink" x="0px"
	 y="0px" viewBox="0 0 393.9 454.8" enable-background="new 0 0 393.9 454.8" xml:space="preserve">
<polygon fill="#F7F5DE" points="393.9,341.1 197,454.8 0,341.1 0,113.7 197,0 393.9,113.7 "/>
<path fill="#F10000" d="M136,184.7h26.1v-11.8v-11.6v-1.9c0-11.2,0.3-28.4,8.4-39.1c8.6-11.3,20.3-19,40.5-19
	c32.9,0,46.8,4.7,46.8,4.7l-6.5,38.7c0,0-10.9-3.1-21-3.1c-10.2,0-19.3,3.6-19.3,13.8v4.1v13.5v11.8h41.6l-2.9,37.8h-38.7v131.3
	h-48.9V222.4H136V184.7L136,184.7z"/>
</svg>
