<?xml version="1.0" encoding="utf-8"?>
<!-- Generator: Adobe Illustrator 17.1.0, SVG Export Plug-In . SVG Version: 6.00 Build 0)  -->
<!DOCTYPE svg PUBLIC "-//W3C//DTD SVG 1.1//EN" "http://www.w3.org/Graphics/SVG/1.1/DTD/svg11.dtd">
<svg version="1.1" id="Isolation_Mode" xmlns="http://www.w3.org/2000/svg" xmlns:xlink="http://www.w3.org/1999/xlink" x="0px"
	 y="0px" viewBox="0 0 393.9 454.8" enable-background="new 0 0 393.9 454.8" xml:space="preserve">
<polygon fill="#F7F5DE" points="393.9,341.1 197,454.8 0,341.1 0,113.7 197,0 393.9,113.7 "/>
<path fill-rule="evenodd" clip-rule="evenodd" fill="#F10000" d="M149.5,308c0.1,13.8,3,27.1,12,37.1c1.2,1.3,2.2,2,3.3,3.1
	c8.5,8.9,21,15.8,36.6,19.5c16,3.8,35.3,3.7,51.4,1c11.9-2,32.8-8.5,41.3-13.9l0-44.8c-4.3,1-23.1,16.2-48.5,13.4
	c-20.2-2.2-27.2-15.6-28-34.3c-0.8-6.5-0.8-86.3-0.7-87.6l67.7,0l0-44.8l-68-0.2l-0.3-72.3l-32.8,0c-4.9,0-7.2-1.4-8,2.6
	c-2.8,13.6-3.6,22.5-9.7,34.2c-9.6,18.3-27.6,35.2-48.1,39.8v40.8l31.7,0.3L149.5,308L149.5,308z"/>
</svg>
