<?xml version="1.0" encoding="utf-8"?>
<!-- Generator: Adobe Illustrator 17.1.0, SVG Export Plug-In . SVG Version: 6.00 Build 0)  -->
<!DOCTYPE svg PUBLIC "-//W3C//DTD SVG 1.1//EN" "http://www.w3.org/Graphics/SVG/1.1/DTD/svg11.dtd">
<svg version="1.1" id="Isolation_Mode" xmlns="http://www.w3.org/2000/svg" xmlns:xlink="http://www.w3.org/1999/xlink" x="0px"
	 y="0px" viewBox="0 0 393.9 454.8" enable-background="new 0 0 393.9 454.8" xml:space="preserve">
<polygon fill="#F7F5DE" points="393.9,341.1 197,454.8 0,341.1 0,113.7 197,0 393.9,113.7 "/>
<path fill-rule="evenodd" clip-rule="evenodd" fill="#24272E" d="M95,90.2h203.9c19.4,0,35.2,15.8,35.2,35.2v203.9
	c0,19.4-15.8,35.2-35.2,35.2H95c-19.4,0-35.2-15.8-35.2-35.2V125.4C59.8,106.1,75.6,90.2,95,90.2L95,90.2z M259.6,120.7L259.6,120.7
	c-6.8,0-12.4,5.6-12.4,12.4v29.6c0,6.8,5.6,12.4,12.4,12.4h31c6.8,0,12.4-5.6,12.4-12.4v-29.6c0-6.8-5.6-12.4-12.4-12.4H259.6
	L259.6,120.7z M303.1,206.3L303.1,206.3H279c2.3,7.5,3.5,15.4,3.5,23.5c0,45.6-38.2,82.6-85.3,82.6c-47.1,0-85.3-37-85.3-82.6
	c0-8.2,1.2-16.1,3.5-23.5H90.2v115.9c0,6,4.9,10.9,10.9,10.9h191.1c6,0,10.9-4.9,10.9-10.9V206.3L303.1,206.3z M197.2,173.4
	L197.2,173.4c-30.4,0-55.1,23.9-55.1,53.4c0,29.5,24.7,53.4,55.1,53.4c30.4,0,55.1-23.9,55.1-53.4
	C252.3,197.3,227.6,173.4,197.2,173.4L197.2,173.4z"/>
</svg>
